<svg width="24" height="24" viewBox="0 0 24 24" fill="none" xmlns="http://www.w3.org/2000/svg">
<g clip-path="url(#clip0_1_41)">
<path d="M0.0239804 12.312C0.0879804 12.6 0.22398 12.848 0.43198 13.056L3.43198 16.056C3.73598 16.36 4.09598 16.512 4.51198 16.512C4.91198 16.512 5.25598 16.36 5.54398 16.056L8.56798 13.08C8.77598 12.856 8.91198 12.6 8.97598 12.312C9.03998 12.024 9.00798 11.728 8.87998 11.424C8.76798 11.152 8.58398 10.928 8.32798 10.752C8.07198 10.576 7.79998 10.496 7.51198 10.512H6.14398C6.49598 8.78399 7.35998 7.35199 8.73598 6.21599C10.112 5.07999 11.704 4.51199 13.512 4.51199C14.872 4.51199 16.128 4.84799 17.28 5.51999C18.432 6.19199 19.336 7.10399 19.992 8.25599C20.648 9.40799 20.984 10.656 21 12C21.016 13.344 20.68 14.6 19.992 15.768C19.304 16.936 18.4 17.848 17.28 18.504C16.16 19.16 14.904 19.496 13.512 19.512C12.344 19.512 11.256 19.256 10.248 18.744C9.23998 18.232 8.38398 17.544 7.67998 16.68L5.54398 18.624C5.54398 18.64 5.53598 18.648 5.51998 18.648C5.50398 18.648 5.48798 18.664 5.47198 18.696C5.45598 18.728 5.43998 18.736 5.42398 18.72C6.41598 19.904 7.60798 20.832 8.99998 21.504C10.392 22.176 11.896 22.512 13.512 22.512C14.92 22.512 16.272 22.24 17.568 21.696C18.864 21.152 19.984 20.4 20.928 19.44C21.872 18.48 22.616 17.368 23.16 16.104C23.704 14.84 23.984 13.472 24 12C24.016 10.528 23.736 9.16799 23.16 7.91999C22.584 6.67199 21.84 5.55999 20.928 4.58399C20.016 3.60799 18.896 2.86399 17.568 2.35199C16.24 1.83999 14.888 1.55999 13.512 1.51199C12.2 1.51199 10.952 1.74399 9.76798 2.20799C8.58398 2.67199 7.52798 3.30399 6.59998 4.10399C5.67198 4.90399 4.90398 5.85599 4.29598 6.95999C3.68798 8.06399 3.29598 9.24799 3.11998 10.512H1.51198C1.20798 10.512 0.92798 10.592 0.67198 10.752C0.41598 10.912 0.23198 11.136 0.11998 11.424C0.00798038 11.712 -0.0240196 12.008 0.0239804 12.312ZM12 12C12 12.416 12.144 12.776 12.432 13.08C12.72 13.384 13.08 13.528 13.512 13.512H16.512C16.912 13.512 17.264 13.368 17.568 13.08C17.872 12.792 18.016 12.432 18 12C17.984 11.568 17.84 11.216 17.568 10.944C17.296 10.672 16.944 10.528 16.512 10.512H15V8.99999C15 8.58399 14.856 8.23199 14.568 7.94399C14.28 7.65599 13.928 7.51199 13.512 7.51199C13.096 7.51199 12.736 7.65599 12.432 7.94399C12.128 8.23199 11.984 8.58399 12 8.99999V12Z" fill="white"/>
</g>
<defs>
<clipPath id="clip0_1_41">
<rect width="24" height="24" fill="white"/>
</clipPath>
</defs>
</svg>
