<svg width="48" height="40" viewBox="0 0 48 40" fill="none" xmlns="http://www.w3.org/2000/svg">
<g clip-path="url(#clip0_1_58)">
<path d="M8.53402 6.66666C6.05612 6.66666 4.01394 7.33418 2.40748 8.67289C0.801027 10.0116 0 11.7024 0 13.7417C0 15.7809 0.801027 17.5084 2.40748 18.8471C4.01394 20.2078 6.05612 20.89 8.53402 20.89C11.0119 20.89 13.0541 20.2078 14.6606 18.8471C16.267 17.5084 17.068 15.8066 17.068 13.7417C17.068 11.6767 16.267 10.0079 14.6606 8.67289C13.0541 7.33418 11.0119 6.66666 8.53402 6.66666ZM11.3244 16.1037C10.5938 16.7162 9.66074 17.0206 8.53402 17.0206C7.4073 17.0206 6.51825 16.7162 5.78764 16.1037C5.08344 15.5168 4.73134 14.7319 4.73134 13.7453C4.73134 12.7587 5.08344 12.0362 5.78764 11.4383C6.49184 10.8405 7.4073 10.5398 8.53402 10.5398C9.66074 10.5398 10.585 10.8405 11.3024 11.4383C12.0198 12.0362 12.3807 12.8064 12.3807 13.7453C12.3807 14.7319 12.0286 15.5168 11.3244 16.1037Z" fill="white"/>
<path d="M34.6906 28.1081C32.5208 28.1081 30.8395 27.4222 29.6424 26.0468C28.4452 24.6714 27.8467 22.7202 27.8467 20.1858C27.8467 17.6514 28.4452 15.8433 29.6424 14.4825C30.8395 13.1218 32.5208 12.4396 34.6906 12.4396C36.2399 12.4396 37.4986 12.7917 38.4713 13.4959C39.444 14.2001 40.0557 15.2088 40.311 16.5255H48C47.6039 13.5913 46.2131 11.266 43.8188 9.55315C41.4245 7.86234 38.3128 7.01877 34.4794 7.01877C30.2278 7.01877 26.7464 8.21444 24.044 10.6095C21.3108 12.9788 19.9464 16.1844 19.9464 20.2225C19.9464 24.2607 21.2976 27.4516 24.0044 29.8686C26.7068 32.2856 30.1881 33.4959 34.4397 33.4959C38.2996 33.4959 41.4685 32.6267 43.9464 30.8919C46.3671 29.179 47.7227 26.784 48.0044 23.7105H40.3154C39.8357 26.6447 37.9651 28.1117 34.695 28.1117L34.6906 28.1081Z" fill="white"/>
</g>
<defs>
<clipPath id="clip0_1_58">
<rect width="48" height="26.8293" fill="white" transform="translate(0 6.66666)"/>
</clipPath>
</defs>
</svg>
