<svg width="48" height="48" viewBox="0 0 48 48" fill="none" xmlns="http://www.w3.org/2000/svg">
<path d="M26.344 4H12C9.8 4 8 5.8 8 8V40C8 42.2 9.8 44 12 44H36C38.2 44 40 42.2 40 40V17.656C40 16.596 39.578 15.578 38.828 14.828L29.172 5.172C28.422 4.422 27.404 4 26.344 4ZM25 38H17C16.448 38 16 37.552 16 37V35C16 34.448 16.448 34 17 34H25C25.552 34 26 34.448 26 35V37C26 37.552 25.552 38 25 38ZM31 32H17C16.448 32 16 31.552 16 31V29C16 28.448 16.448 28 17 28H31C31.552 28 32 28.448 32 29V31C32 31.552 31.552 32 31 32ZM31 26H17C16.448 26 16 25.552 16 25V23C16 22.448 16.448 22 17 22H31C31.552 22 32 22.448 32 23V25C32 25.552 31.552 26 31 26ZM26 18V7L37 18H26Z" fill="white" fill-opacity="0.5"/>
</svg>
