<svg width="24" height="24" viewBox="0 0 24 24" fill="none" xmlns="http://www.w3.org/2000/svg">
<g clip-path="url(#clip0_1_35)">
<path d="M1.23053 3.95169V20.0487C1.23053 22.2314 2.67665 24 4.4607 24C6.24492 24 7.6919 22.2313 7.6919 20.0487V3.95169C7.6919 1.77001 6.24492 0.00067159 4.4607 0.00067159C2.67665 -2.07063e-05 1.23053 1.77001 1.23053 3.95169Z" fill="white"/>
<path d="M19.5383 0C17.7544 0 16.3083 1.76934 16.3083 3.95102V20.048C16.3083 22.2308 17.7544 23.9986 19.5383 23.9986C21.3222 23.9986 22.7694 22.2307 22.7694 20.048V3.95171C22.7686 1.77003 21.3222 0 19.5383 0Z" fill="white"/>
</g>
<defs>
<clipPath id="clip0_1_35">
<rect width="24" height="24" fill="white"/>
</clipPath>
</defs>
</svg>
