<svg width="48" height="48" viewBox="0 0 48 48" fill="none" xmlns="http://www.w3.org/2000/svg">
<path d="M10 6C7.79 6 6 7.79 6 10V38C6 40.21 7.79 42 10 42H38C40.21 42 42 40.21 42 38V10C42 7.79 40.21 6 38 6H10ZM22 12C27.522 12 32 16.478 32 22C32 24.038 31.3839 25.9278 30.3359 27.5078L35.4141 32.5859C36.1961 33.3659 36.1961 34.6341 35.4141 35.4141C34.6321 36.1961 33.3659 36.1961 32.5859 35.4141L27.5078 30.3359C25.9278 31.3839 24.038 32 22 32C16.478 32 12 27.522 12 22C12 16.478 16.478 12 22 12ZM22 16C20.4087 16 18.8826 16.6321 17.7574 17.7574C16.6321 18.8826 16 20.4087 16 22C16 23.5913 16.6321 25.1174 17.7574 26.2426C18.8826 27.3679 20.4087 28 22 28C23.5913 28 25.1174 27.3679 26.2426 26.2426C27.3679 25.1174 28 23.5913 28 22C28 20.4087 27.3679 18.8826 26.2426 17.7574C25.1174 16.6321 23.5913 16 22 16Z" fill="white" fill-opacity="0.5"/>
</svg>
