<svg width="100" height="100" viewBox="0 0 100 100" fill="none" xmlns="http://www.w3.org/2000/svg">
<g clip-path="url(#clip0_1_1034)">
<mask id="mask0_1_1034" style="mask-type:luminance" maskUnits="userSpaceOnUse" x="1" y="1" width="54" height="57">
<path d="M1.75781 1.75781V57.6172H12.4023C13.0254 52.0469 16.5781 47.1816 21.7246 44.9082C22.3301 37.168 28.8242 31.0547 36.7168 31.0547C38.1562 31.0547 39.5762 31.2598 40.9531 31.668C44.4453 27.7266 49.2559 25.3203 54.4902 24.8789V1.75781H1.75781Z" fill="white"/>
</mask>
<g mask="url(#mask0_1_1034)">
<g clip-path="url(#clip1_1_1034)">
<path d="M28.5156 44.3359C32.8303 44.3359 36.3281 40.8382 36.3281 36.5234C36.3281 32.2087 32.8303 28.7109 28.5156 28.7109C24.2009 28.7109 20.7031 32.2087 20.7031 36.5234C20.7031 40.8382 24.2009 44.3359 28.5156 44.3359Z" stroke="white" stroke-width="5" stroke-miterlimit="10"/>
<path d="M28.5156 23.5117V18.5547M28.5156 54.4922V49.5352M37.7168 27.3223L41.2227 23.8164M15.8105 49.2285L19.3164 45.7227M19.3164 27.3203L15.8105 23.8145M41.2207 49.2285L37.7148 45.7227M10.5469 36.5234H15.5039M46.4844 36.5234H41.5273" stroke="white" stroke-width="5" stroke-miterlimit="10" stroke-linecap="round"/>
</g>
</g>
<g clip-path="url(#clip2_1_1034)">
<path d="M72.6562 71.0938C78.6973 71.0938 83.5938 66.1973 83.5938 60.1562C83.5938 54.1152 78.6973 49.2188 72.6562 49.2188C72.4902 49.2188 72.3281 49.2363 72.1621 49.2441C72.4727 47.9824 72.6562 46.6699 72.6562 45.3125C72.6562 36.252 65.3105 28.9062 56.25 28.9062C50.3516 28.9062 45.1953 32.0293 42.3047 36.7031C40.668 35.7285 38.7637 35.1562 36.7188 35.1562C30.6777 35.1562 25.7812 40.0527 25.7812 46.0938C25.7812 46.6992 25.8437 47.2891 25.9375 47.8672C20.5117 48.8926 16.4062 53.6504 16.4062 59.375C16.4062 65.8477 21.6523 71.0938 28.125 71.0938" stroke="white" stroke-width="5" stroke-linecap="round" stroke-linejoin="round"/>
</g>
</g>
<defs>
<clipPath id="clip0_1_1034">
<rect width="83.3008" height="70.8008" fill="white" transform="translate(1.75781 1.75781)"/>
</clipPath>
<clipPath id="clip1_1_1034">
<rect width="38.8672" height="38.8672" fill="white" transform="translate(9.08203 17.0898)"/>
</clipPath>
<clipPath id="clip2_1_1034">
<rect width="70.1172" height="45.1172" fill="white" transform="translate(14.9414 27.4414)"/>
</clipPath>
</defs>
</svg>
