<svg width="48" height="48" viewBox="0 0 48 48" fill="none" xmlns="http://www.w3.org/2000/svg">
<path d="M36 42H40C43.3 42 46 39.3 46 36V19.84L34 29.2V40C34 41.104 34.896 42 36 42ZM39 6C37.42 6 35.92 6.52 34.68 7.48L34 8.02V24.14L46 14.76V13C46 9.14 42.86 6 39 6ZM18 11.14V27.26L22.77 30.98C23.494 31.544 24.508 31.544 25.23 30.98L30 27.26V11.14L24 15.82L18 11.14ZM2 36C2 39.3 4.7 42 8 42H12C13.104 42 14 41.104 14 40V29.2L2 19.84V36ZM9 6C5.14 6 2 9.14 2 13V14.76L14 24.14V8.02L13.32 7.48C12.08 6.52 10.58 6 9 6Z" fill="white" fill-opacity="0.5"/>
</svg>
