<svg width="48" height="48" viewBox="0 0 48 48" fill="none" xmlns="http://www.w3.org/2000/svg">
<path d="M23.838 14.016C23.894 14.016 23.946 14 24.002 14C27.046 14 29.534 16.276 29.922 19.214L36.652 11.248C35.202 8.912 33.198 7.022 30.852 5.76L23.838 14.016ZM24.002 26C20.96 26 18.474 23.728 18.082 20.792L11.966 27.99C12.802 29.352 13.728 30.674 14.654 31.976C15.352 32.96 16.034 33.928 16.67 34.898L24.206 25.978C24.136 25.982 24.072 26 24.002 26ZM18.76 38.622C19.3 39.834 19.706 41.08 19.89 42.398C20.174 44.452 21.942 46 24.004 46C26.066 46 27.83 44.466 28.106 42.432C28.622 38.628 30.918 35.396 33.348 31.976C36.81 27.102 40.372 22.06 38.464 15.3L18.76 38.622ZM19.69 12.72L26.844 4.298C26.202 4.168 25.554 4.062 24.892 4.024C20.95 3.802 17.208 5.084 14.25 7.624L19.69 12.72ZM11.584 10.61C9.92401 13.072 9.00201 15.998 9.00201 19C9.00201 20.824 9.38801 22.516 10.004 24.122L17.098 15.772L11.584 10.61Z" fill="white" fill-opacity="0.5"/>
</svg>
